<svg width="20px" height="15px" viewBox="0 0 20 15" version="1.1" xmlns="http://www.w3.org/2000/svg" xmlns:xlink="http://www.w3.org/1999/xlink">
    <g id="Page-1" stroke="none" stroke-width="1" fill="none" fill-rule="evenodd" opacity="0.300215127">
        <g id="Blog" transform="translate(-284.000000, -4420.000000)" fill="#000000">
            <g id="Group" transform="translate(284.000000, 4391.000000)">
                <g id="Page-1" transform="translate(10.000000, 36.500000) rotate(-180.000000) translate(-10.000000, -36.500000) translate(0.000000, 29.000000)">
                    <path d="M11.3634545,0.926558824 C11.3634545,1.14714706 11.4543636,1.36773529 11.6366364,1.54420588 L16.818,6.57361765 L0.908909091,6.57361765 C0.408909091,6.57361765 -0.000181818182,6.97067647 -0.000181818182,7.45597059 C-0.000181818182,7.94126471 0.408909091,8.33832353 0.908909091,8.33832353 L16.818,8.33832353 L11.6366364,13.3677353 C11.4543636,13.5442059 11.3634545,13.7647941 11.3634545,13.9853824 C11.3634545,14.2059706 11.4543636,14.4265588 11.6366364,14.6030294 C11.9998182,14.9555294 12.5457273,14.9555294 12.9089091,14.6030294 L19.6361818,8.07361765 C19.9998182,7.72067647 19.9998182,7.19126471 19.6361818,6.83832353 L12.9089091,0.264794118 C12.5457273,-0.0881470588 11.9998182,-0.0881470588 11.6366364,0.264794118 C11.4543636,0.441264706 11.3634545,0.661852941 11.3634545,0.926558824" id="Fill-1"></path>
                </g>
            </g>
        </g>
    </g>
</svg>