<svg xmlns="http://www.w3.org/2000/svg" width="200" height="47" viewBox="0 0 154 36">
<style type="text/css">
	.st0{fill:#006837;}
</style>
<switch>
	<g>
		<path class="st0" d="M58.586,9.457c1.968,0,3.552-1.584,3.552-3.552c0-1.968-1.584-3.6-3.552-3.6c-2.017,0-3.601,1.632-3.601,3.6
			C54.985,7.873,56.569,9.457,58.586,9.457z"/>
		<path class="st0" d="M48.313,9.457c1.968,0,3.552-1.584,3.552-3.552c0-1.968-1.584-3.6-3.552-3.6c-1.968,0-3.601,1.632-3.601,3.6
			C44.712,7.873,46.345,9.457,48.313,9.457z"/>
		<path d="M0,35.043V12.001h5.905v2.688c1.2-1.44,3.84-3.36,7.345-3.36c3.456,0,5.712,1.44,7.057,3.408
			c1.92-1.872,4.512-3.408,7.681-3.408c6.48,0,8.593,5.04,8.593,9.121v14.593h-6.625V20.882c0-2.4-1.488-3.792-3.6-3.792
			c-1.824,0-3.456,1.056-4.561,2.304c0.048,0.336,0.048,0.672,0.048,1.056v14.593h-6.625V20.882c0-2.4-1.488-3.792-3.601-3.792
			c-2.016,0-3.84,1.344-4.944,2.784v15.169H0z"/>
		<path d="M53.425,11.329c-6.673,0-12.721,4.128-12.721,12.193s6.048,12.193,12.721,12.193c6.721,0,12.721-4.128,12.721-12.193
			S60.146,11.329,53.425,11.329z M53.425,29.763c-3.792,0-5.905-2.688-5.905-6.241s2.112-6.241,5.905-6.241
			c3.84,0,5.953,2.688,5.953,6.241S57.266,29.763,53.425,29.763z"/>
		<path d="M84.769,11.329c-3.648,0-6.145,1.488-7.585,3.12V1.44h-6.672v33.603h5.905v-3.36c1.439,2.064,4.08,4.032,8.353,4.032
			c7.297,0,11.232-5.904,11.232-12.193S92.066,11.329,84.769,11.329z M83.137,30.099c-2.929,0-5.089-1.824-6.001-3.84v-5.473
			c0.912-2.016,3.072-3.84,6.001-3.84c3.792,0,6.048,2.977,6.048,6.577S86.929,30.099,83.137,30.099z"/>
		<rect x="100.463" width="6.672" height="35.043"/>
		<path d="M123.456,11.329c-5.185,0-11.857,3.504-11.857,12.193c0,8.017,6.049,12.193,13.345,12.193
			c3.457,0,6.289-0.527,8.449-1.439v-5.232c-1.968,0.863-4.32,1.392-6.961,1.392c-3.792,0-7.345-1.392-8.112-4.752h16.226
			C136.081,18.866,133.008,11.329,123.456,11.329z M128.543,21.362h-10.272c0.096-3.168,2.592-4.944,5.424-4.944
			C127.872,16.417,128.784,19.778,128.543,21.362z"/>
		<path d="M154.368,11.521v6.48c-3.648-0.624-7.153,0.768-8.545,3.504v13.537h-6.673V12.001h5.904v3.456
			C146.687,12.913,150.047,11.089,154.368,11.521z"/>
	</g>
</switch>
</svg>
