<svg width="48px" height="49px" viewBox="1311 892 48 49" xmlns="http://www.w3.org/2000/svg">
    <g stroke="none" stroke-width="1" fill="none" fill-rule="evenodd" transform="translate(1311.000000, 892.000000)">
            <path d="M37.863,2.6289 L30.7,9.7909 C30.297,10.1949 30.074,10.7329 30.074,11.3049 C30.074,11.8759 30.296,12.4129 30.7,12.8169 L33.113,15.2309 C34.296,16.4129 34.335,18.4829 33.223,21.0579 C32.236,23.3439 30.432,25.8619 28.145,28.1499 C25.858,30.4369 23.339,32.2399 21.053,33.2269 C18.478,34.3379 16.408,34.2989 15.226,33.1169 L12.813,30.7049 C12.004,29.8959 10.595,29.8979 9.787,30.7049 L2.624,37.8669 C1.79,38.7009 1.79,40.0589 2.624,40.8929 L6.515,44.7839 C8.283,46.5519 12.027,46.3859 16.79,44.3299 C21.911,42.1179 27.601,38.0299 32.814,32.8179 C44.259,21.3739 48.24,9.9809 44.78,6.5199 L40.889,2.6289 C40.485,2.2249 39.948,2.0019 39.376,2.0019 C38.804,2.0019 38.267,2.2249 37.863,2.6289 M5.101,46.1979 L1.21,42.3069 C-0.404,40.6929 -0.404,38.0669 1.21,36.4529 L8.373,29.2909 C9.155,28.5089 10.194,28.0779 11.3,28.0779 C12.405,28.0779 13.445,28.5089 14.227,29.2909 L16.64,31.7029 C17.18,32.2409 18.567,32.1209 20.26,31.3919 C22.32,30.5019 24.618,28.8489 26.731,26.7349 C28.844,24.6219 30.498,22.3239 31.387,20.2649 C32.119,18.5699 32.238,17.1839 31.699,16.6449 L29.286,14.2319 C28.505,13.4499 28.074,12.4099 28.074,11.3049 C28.074,10.1989 28.504,9.1589 29.286,8.3769 L36.449,1.2149 C37.23,0.4329 38.27,0.0019 39.376,0.0019 C40.482,0.0019 41.521,0.4329 42.303,1.2149 L46.194,5.1059 C51.006,9.9169 45.749,22.7109 34.228,34.2319 C28.842,39.6189 22.93,43.8569 17.582,46.1659 C14.751,47.3879 12.224,47.9999 10.104,47.9999 C8.003,47.9989 6.301,47.3989 5.101,46.1979" fill="#FFFFFF"></path>
        <path d="M3.5012,45.5874 C3.1102,45.1964 3.1102,44.5644 3.5012,44.1734 L15.0982,32.5774 C15.4882,32.1864 16.1212,32.1864 16.5122,32.5774 C16.9022,32.9674 16.9022,33.6004 16.5122,33.9904 L4.9152,45.5874 C4.7202,45.7824 4.4642,45.8804 4.2082,45.8804 C3.9522,45.8804 3.6962,45.7824 3.5012,45.5874" fill="#FFFFFF"></path>
        <path d="M31.5701,17.5195 C31.1791,17.1285 31.1791,16.4965 31.5701,16.1055 L43.1751,4.4985 C43.5661,4.1085 44.1991,4.1085 44.5901,4.4985 C44.9801,4.8895 44.9801,5.5225 44.5901,5.9135 L32.9841,17.5195 C32.7891,17.7145 32.5331,17.8125 32.2771,17.8125 C32.0211,17.8125 31.7651,17.7145 31.5701,17.5195" fill="#FFFFFF"></path>
    </g>
</svg>